<svg width="12" height="13" viewBox="0 0 12 13" fill="none" xmlns="http://www.w3.org/2000/svg">
<path d="M6.5 3.5C6.5 3.22386 6.27614 3 6 3C5.72386 3 5.5 3.22386 5.5 3.5V6.5C5.5 6.68939 5.607 6.86252 5.77639 6.94721L7.77639 7.94721C8.02338 8.07071 8.32372 7.9706 8.44721 7.72361C8.57071 7.47662 8.4706 7.17628 8.22361 7.05279L6.5 6.19098V3.5Z" fill="#292929"/>
<path fill-rule="evenodd" clip-rule="evenodd" d="M6 1C2.96243 1 0.5 3.46243 0.5 6.5C0.5 9.53757 2.96243 12 6 12C9.03757 12 11.5 9.53757 11.5 6.5C11.5 3.46243 9.03757 1 6 1ZM1.5 6.5C1.5 4.01472 3.51472 2 6 2C8.48528 2 10.5 4.01472 10.5 6.5C10.5 8.98528 8.48528 11 6 11C3.51472 11 1.5 8.98528 1.5 6.5Z" fill="#292929"/>
</svg>
