<svg width="12" height="13" viewBox="0 0 12 13" fill="none" xmlns="http://www.w3.org/2000/svg">
<path fill-rule="evenodd" clip-rule="evenodd" d="M6 12C9.03757 12 11.5 9.53757 11.5 6.5C11.5 3.46243 9.03757 1 6 1C2.96243 1 0.5 3.46243 0.5 6.5C0.5 9.53757 2.96243 12 6 12ZM4.86285 2.14491C3.0844 2.60799 1.734 4.13162 1.52746 6H3.52505C3.63715 4.61841 4.09955 3.29221 4.86285 2.14491ZM7.13715 2.14491C7.90045 3.29221 8.36285 4.61841 8.47495 6H10.4725C10.266 4.13162 8.9156 2.60799 7.13715 2.14491ZM7.4712 6C7.34561 4.64341 6.83484 3.35097 6 2.2754C5.16516 3.35097 4.65439 4.64341 4.5288 6H7.4712ZM4.5288 7H7.4712C7.34561 8.35659 6.83484 9.64903 6 10.7246C5.16516 9.64903 4.65439 8.35659 4.5288 7ZM3.52505 7H1.52746C1.734 8.86838 3.0844 10.392 4.86285 10.8551C4.09955 9.70779 3.63715 8.38159 3.52505 7ZM7.13715 10.8551C7.90045 9.70779 8.36285 8.38159 8.47495 7H10.4725C10.266 8.86838 8.9156 10.392 7.13715 10.8551Z" fill="#292929"/>
</svg>
