<svg width="12" height="13" viewBox="0 0 12 13" fill="none" xmlns="http://www.w3.org/2000/svg">
<path fill-rule="evenodd" clip-rule="evenodd" d="M4.5 1.5C3.11929 1.5 2 2.61929 2 4C2 5.38071 3.11929 6.5 4.5 6.5C5.88071 6.5 7 5.38071 7 4C7 2.61929 5.88071 1.5 4.5 1.5ZM3 4C3 3.17157 3.67157 2.5 4.5 2.5C5.32843 2.5 6 3.17157 6 4C6 4.82843 5.32843 5.5 4.5 5.5C3.67157 5.5 3 4.82843 3 4Z" fill="#292929"/>
<path d="M2.5 7.5C1.83696 7.5 1.20107 7.76339 0.732233 8.23223C0.263392 8.70107 0 9.33696 0 10V11C0 11.2761 0.223858 11.5 0.5 11.5C0.776142 11.5 1 11.2761 1 11V10C1 9.60218 1.15804 9.22064 1.43934 8.93934C1.72064 8.65804 2.10218 8.5 2.5 8.5H6.5C6.89782 8.5 7.27936 8.65804 7.56066 8.93934C7.84196 9.22064 8 9.60217 8 10V11C8 11.2761 8.22386 11.5 8.5 11.5C8.77614 11.5 9 11.2761 9 11V10C9 9.33696 8.73661 8.70107 8.26777 8.23223C7.79893 7.76339 7.16304 7.5 6.5 7.5H2.5Z" fill="#292929"/>
<path d="M9.51588 7.94C9.58491 7.67263 9.85763 7.51184 10.125 7.58088C10.6613 7.71936 11.1365 8.03204 11.4759 8.46983C11.8152 8.90761 11.9996 9.44571 12 9.99963V11C12 11.2761 11.7761 11.5 11.5 11.5C11.2239 11.5 11 11.2761 11 11V10.0004C10.9997 9.66808 10.8891 9.34513 10.6855 9.08249C10.4819 8.81982 10.1968 8.63221 9.875 8.54913C9.60763 8.48009 9.44684 8.20738 9.51588 7.94Z" fill="#292929"/>
<path d="M8.12402 1.58063C7.85651 1.51213 7.58412 1.67347 7.51562 1.94098C7.44713 2.2085 7.60847 2.48088 7.87598 2.54938C8.19864 2.63199 8.48462 2.81964 8.68884 3.08274C8.89307 3.34585 9.00392 3.66944 9.00392 4.0025C9.00392 4.33557 8.89307 4.65916 8.68884 4.92226C8.48462 5.18536 8.19864 5.37301 7.87598 5.45563C7.60847 5.52412 7.44713 5.79651 7.51562 6.06402C7.58412 6.33153 7.85651 6.49287 8.12402 6.42438C8.66178 6.28669 9.13842 5.97394 9.47879 5.53543C9.81917 5.09693 10.0039 4.55761 10.0039 4.0025C10.0039 3.4474 9.81917 2.90808 9.47879 2.46957C9.13842 2.03107 8.66178 1.71832 8.12402 1.58063Z" fill="#292929"/>
</svg>
