<svg width="12" height="13" viewBox="0 0 12 13" fill="none" xmlns="http://www.w3.org/2000/svg">
<path fill-rule="evenodd" clip-rule="evenodd" d="M6 3C4.89543 3 4 3.89543 4 5C4 6.10457 4.89543 7 6 7C7.10457 7 8 6.10457 8 5C8 3.89543 7.10457 3 6 3ZM5 5C5 4.44772 5.44772 4 6 4C6.55228 4 7 4.44772 7 5C7 5.55228 6.55228 6 6 6C5.44772 6 5 5.55228 5 5Z" fill="#292929"/>
<path fill-rule="evenodd" clip-rule="evenodd" d="M5.72238 11.9158C5.72252 11.9159 5.72265 11.916 6 11.5L5.72238 11.9158C5.89033 12.0278 6.1094 12.028 6.27735 11.916L6 11.5C6.27735 11.916 6.27721 11.9161 6.27735 11.916L6.27905 11.9149L6.28238 11.9127L6.29384 11.9049C6.30358 11.8983 6.31746 11.8888 6.33522 11.8765C6.37074 11.8519 6.42177 11.8161 6.4861 11.7696C6.61473 11.6767 6.79682 11.5411 7.01459 11.3677C7.44933 11.0215 8.03031 10.5214 8.61298 9.90637C9.75787 8.69788 11 6.95097 11 5C11 3.67392 10.4732 2.40215 9.53553 1.46447C8.59785 0.526784 7.32608 0 6 0C4.67392 0 3.40215 0.526784 2.46447 1.46447C1.52678 2.40215 1 3.67392 1 5C1 6.95097 2.24213 8.69788 3.38702 9.90637C3.96969 10.5214 4.55067 11.0215 4.98541 11.3677C5.20318 11.5411 5.38527 11.6767 5.5139 11.7696C5.57823 11.8161 5.62926 11.8519 5.66478 11.8765C5.68254 11.8888 5.69642 11.8983 5.70616 11.9049L5.71762 11.9127L5.72095 11.9149L5.72238 11.9158ZM3.17157 2.17157C3.92172 1.42143 4.93913 1 6 1C7.06087 1 8.07828 1.42143 8.82843 2.17157C9.57857 2.92172 10 3.93913 10 5C10 6.54903 8.99213 8.05212 7.88702 9.21863C7.34469 9.79109 6.80067 10.2597 6.39166 10.5854C6.23944 10.7066 6.10649 10.8076 6 10.8863C5.89351 10.8076 5.76056 10.7066 5.60834 10.5854C5.19933 10.2597 4.65531 9.79109 4.11298 9.21863C3.00787 8.05212 2 6.54903 2 5C2 3.93913 2.42143 2.92172 3.17157 2.17157Z" fill="#292929"/>
</svg>
