<svg width="42" height="43" viewBox="0 0 42 43" fill="none" xmlns="http://www.w3.org/2000/svg">
<rect y="0.5" width="42" height="42" rx="21" fill="#F0E9E7"/>
<path d="M17.534 21.57C17.6569 21.5175 17.7892 21.4903 17.9228 21.4898C18.0565 21.4893 18.1889 21.5156 18.3122 21.5672C18.4355 21.6188 18.5473 21.6945 18.6408 21.79C18.7344 21.8855 18.8078 21.9988 18.8568 22.1231C18.9058 22.2475 18.9294 22.3804 18.9262 22.514C18.9229 22.6477 18.8929 22.7793 18.8379 22.9011C18.7829 23.023 18.7041 23.1325 18.606 23.2234C18.508 23.3142 18.3927 23.3845 18.267 23.43C17.5985 23.6934 17.0248 24.1519 16.6205 24.7458C16.2162 25.3397 16 26.0415 16 26.76V28.5C16 28.7652 16.1054 29.0196 16.2929 29.2071C16.4804 29.3946 16.7348 29.5 17 29.5H25C25.2652 29.5 25.5196 29.3946 25.7071 29.2071C25.8946 29.0196 26 28.7652 26 28.5V26.853C26.0001 26.1115 25.7749 25.3874 25.3541 24.7768C24.9334 24.1662 24.337 23.6979 23.644 23.434C23.5175 23.3901 23.4012 23.3213 23.3018 23.2316C23.2024 23.1419 23.1221 23.0332 23.0655 22.9119C23.009 22.7905 22.9773 22.6591 22.9725 22.5253C22.9677 22.3916 22.9897 22.2582 23.0374 22.1331C23.0851 22.008 23.1574 21.8938 23.25 21.7972C23.3427 21.7006 23.4538 21.6235 23.5767 21.5706C23.6997 21.5177 23.832 21.4901 23.9659 21.4893C24.0998 21.4885 24.2324 21.5146 24.356 21.566C25.4276 21.9742 26.3499 22.6983 27.0006 23.6425C27.6514 24.5867 27.9999 25.7063 28 26.853V28.5C28 29.2956 27.6839 30.0587 27.1213 30.6213C26.5587 31.1839 25.7956 31.5 25 31.5H17C16.2044 31.5 15.4413 31.1839 14.8787 30.6213C14.3161 30.0587 14 29.2956 14 28.5V26.76C14.0001 25.6402 14.3373 24.5463 14.9676 23.6206C15.5978 22.695 16.4921 21.9805 17.534 21.57ZM21 11.5C22.0609 11.5 23.0783 11.9214 23.8284 12.6716C24.5786 13.4217 25 14.4391 25 15.5V17.5C25 18.5609 24.5786 19.5783 23.8284 20.3284C23.0783 21.0786 22.0609 21.5 21 21.5C19.9391 21.5 18.9217 21.0786 18.1716 20.3284C17.4214 19.5783 17 18.5609 17 17.5V15.5C17 14.4391 17.4214 13.4217 18.1716 12.6716C18.9217 11.9214 19.9391 11.5 21 11.5V11.5ZM21 13.5C20.4696 13.5 19.9609 13.7107 19.5858 14.0858C19.2107 14.4609 19 14.9696 19 15.5V17.5C19 18.0304 19.2107 18.5391 19.5858 18.9142C19.9609 19.2893 20.4696 19.5 21 19.5C21.5304 19.5 22.0391 19.2893 22.4142 18.9142C22.7893 18.5391 23 18.0304 23 17.5V15.5C23 14.9696 22.7893 14.4609 22.4142 14.0858C22.0391 13.7107 21.5304 13.5 21 13.5Z" fill="#661E11"/>
</svg>
